<svg xmlns="http://www.w3.org/2000/svg" xmlns:xlink="http://www.w3.org/1999/xlink" width="590" height="346" viewBox="0 0 590 346">
  <defs>
    <polygon id="scout-promo-bg-a" points="0 0 463.402 0 590 0 590 346 0 346"/>
    <linearGradient id="scout-promo-bg-b" x1="15.665%" x2="107.538%" y1="53.875%" y2="64.815%">
      <stop offset="0%" stop-color="#00FF87"/>
      <stop offset="100%" stop-color="#37003C"/>
    </linearGradient>
  </defs>
  <g fill="none" fill-rule="evenodd">
    <mask id="scout-promo-bg-c" fill="#fff">
      <use xlink:href="#scout-promo-bg-a"/>
    </mask>
    <path fill="url(#scout-promo-bg-b)" d="M-365.55,-811.658333 C-132.031696,-718.887815 141.454261,-672.11017 405.612447,-662.95849 L288.213574,-545.068106 C452.642044,-509.59787 611.223681,-491.777815 786.204564,-491.777815 C937.669457,-491.777815 1040.64424,-496.51994 1184.39436,-523.285912 L996.128253,-334.230152 C1317.61113,-368.0806 1665.40952,-474.314257 1936.79167,-622.104913 L1936.79167,-224.132453 C1608.061,-83.9215406 1242.24798,-6.1980587 862.580305,-6.1980587 C809.980254,-6.1980587 799.15861,-4.60458975 747.290008,-7.54269767 L907.544211,-168.451958 C615.748186,-168.451958 301.684638,-208.882046 37.9457854,-293.740249 L150.072026,-406.321463 C-27.2795169,-452.120536 -205.119487,-521.489072 -365.55,-602.071707 L-365.55,-811.658333 Z M-219.941667,49.5594765 L-219.941667,-160.025 C13.579262,-67.2543744 287.063119,-20.4766754 551.221578,-11.3225924 L433.820201,106.565535 C598.248841,142.035813 756.833025,159.855888 931.814089,159.855888 C1083.2839,159.855888 1186.25641,155.111365 1330.00191,128.345362 L1141.738,317.403734 C1463.22121,283.553246 1811.02234,177.319467 2082.4,29.5286394 L2082.4,427.50156 C1753.669,567.712634 1387.86036,645.436206 1008.18991,645.436206 C955.589803,645.436206 944.765766,647.027284 892.899493,644.091566 L1053.15624,483.182119 C761.359917,483.182119 447.293662,442.751985 183.554536,357.893683 L295.680892,245.312339 C118.326784,199.513213 -59.5109874,130.144597 -219.941667,49.5594765 Z" mask="url(#scout-promo-bg-c)"/>
  </g>
</svg>
